<?xml version="1.0" standalone="no"?>
<!DOCTYPE svg PUBLIC "-//W3C//DTD SVG 20010904//EN"
 "http://www.w3.org/TR/2001/REC-SVG-20010904/DTD/svg10.dtd">
<svg version="1.0" xmlns="http://www.w3.org/2000/svg"
 width="334.000000pt" height="272.000000pt" viewBox="0 0 334.000000 272.000000"
 preserveAspectRatio="xMidYMid meet">

<g transform="translate(0.000000,272.000000) scale(0.100000,-0.100000)"
fill="#000000" stroke="none">
<path d="M0 1360 l0 -1360 1670 0 1670 0 0 1360 0 1360 -1670 0 -1670 0 0
-1360z m2981 1112 l31 -28 0 -108 c-1 -98 -3 -111 -23 -132 -12 -13 -28 -24
-36 -24 -9 0 -13 -17 -13 -61 0 -43 -3 -58 -12 -53 -8 5 -9 0 -2 -17 4 -13 10
-133 11 -265 4 -231 5 -242 23 -247 17 -4 20 -14 20 -65 0 -55 2 -61 23 -65
l22 -4 -22 -8 c-22 -7 -23 -13 -25 -144 l-3 -136 -142 -3 -143 -3 0 -54 c0
-47 -3 -55 -19 -55 -16 0 -19 10 -23 73 -9 133 -74 235 -190 298 -60 32 -68
34 -163 34 -95 0 -103 -2 -163 -34 -101 -55 -171 -151 -188 -258 -6 -43 -6
-43 24 -43 28 0 30 3 36 45 4 25 12 45 17 45 6 0 8 4 5 9 -11 17 59 106 107
138 149 99 350 44 434 -121 13 -27 22 -57 20 -67 -3 -11 0 -19 5 -19 16 0 2
-114 -20 -163 -27 -60 -65 -102 -125 -136 -63 -36 -121 -48 -142 -31 -10 9
-15 9 -15 1 0 -16 -49 -12 -98 8 -59 23 -118 71 -102 81 17 11 3 31 -16 23 -8
-3 -21 3 -29 13 -19 25 -18 31 5 37 13 3 21 -1 25 -13 5 -16 16 -11 80 38 72
55 89 82 63 99 -7 4 -50 12 -95 19 l-83 11 0 -44 c0 -47 0 -47 50 -33 55 17
123 29 113 20 -4 -4 -40 -15 -80 -25 -60 -14 -72 -20 -77 -41 -10 -37 -25 -29
-37 21 l-11 45 -87 2 c-47 0 -93 1 -101 0 -8 0 -23 4 -33 10 -14 7 -17 7 -13
-1 4 -7 -1 -11 -13 -11 -11 0 -23 5 -26 10 -4 7 -13 7 -25 0 -31 -16 -129 -10
-140 9 -8 14 -9 14 -10 -1 0 -11 -8 -18 -20 -18 -11 0 -20 5 -20 11 0 8 -4 8
-14 0 -9 -7 -51 -11 -117 -9 -73 2 -104 -1 -107 -10 -2 -7 -10 -12 -19 -12
-10 0 -12 -6 -8 -19 4 -14 -2 -24 -25 -37 -24 -15 -30 -25 -30 -51 0 -33 0
-33 -50 -33 -38 0 -50 4 -50 15 0 10 10 15 30 15 32 0 44 29 13 31 -10 0 -44
4 -76 8 l-57 7 -25 -42 c-68 -116 -212 -170 -350 -130 -46 14 -70 29 -115 74
-71 72 -95 133 -88 231 6 70 34 144 52 134 6 -3 1 5 -11 18 -22 23 -23 23 -37
4 -12 -16 -17 -18 -28 -7 -10 10 -10 17 0 32 7 12 8 21 2 25 -6 3 -10 13 -10
22 0 11 7 14 24 11 15 -3 27 0 30 8 3 8 11 14 18 14 7 0 19 9 25 19 15 24 108
70 152 76 18 2 45 7 61 10 16 4 35 3 41 -1 7 -4 28 -8 48 -10 19 -2 48 -9 63
-15 36 -15 68 5 68 41 0 6 8 18 19 29 12 12 16 23 10 32 -7 12 -14 11 -40 -3
-40 -23 -42 -23 -78 8 -58 48 -32 81 53 69 24 -4 69 -2 101 5 49 10 60 10 73
-4 20 -20 3 -42 -39 -51 -34 -8 -37 -38 -4 -43 11 -2 25 -5 30 -6 6 -2 13 -4
18 -5 18 -2 74 -36 121 -73 57 -46 117 -78 144 -78 10 0 22 -4 28 -8 5 -4 44
-6 86 -4 l77 4 -20 27 c-22 30 -27 57 -28 149 l-1 62 -96 0 c-86 0 -95 2 -92
18 3 14 17 17 96 20 l92 3 0 29 0 29 -92 3 c-75 2 -93 6 -93 18 0 12 19 15
110 15 l110 0 2 -120 c1 -66 2 -132 3 -147 0 -29 44 -88 65 -88 7 0 15 9 18
19 3 13 -2 21 -17 26 -18 6 -19 8 -3 12 12 3 17 14 17 37 0 58 11 94 31 99 18
5 19 19 19 316 0 241 -3 313 -12 315 -7 3 -26 7 -41 11 -41 9 -56 52 -53 160
2 94 13 125 51 144 12 6 269 10 692 10 l673 1 31 -28z m-2430 -1918 c22 -20
25 -54 6 -54 -8 0 -22 9 -32 20 -23 26 -50 25 -75 0 -12 -12 -25 -18 -30 -15
-6 4 -10 1 -10 -4 0 -6 5 -11 10 -11 6 0 10 -42 10 -106 0 -130 6 -144 64
-144 49 0 61 -7 45 -27 -12 -14 -86 -18 -105 -5 -6 4 -16 17 -23 29 -10 20 -9
22 6 17 10 -2 8 1 -4 7 -22 11 -23 18 -23 128 0 126 9 157 50 179 31 16 86 9
111 -14z m243 -4 c18 -18 21 -35 24 -138 1 -64 0 -132 -3 -149 -5 -29 -10 -33
-36 -33 -18 0 -28 -4 -24 -10 4 -6 12 -7 18 -4 8 5 9 4 2 -4 -23 -24 -80 -18
-110 13 -24 23 -25 29 -25 164 l0 139 32 27 c26 22 39 26 67 21 19 -3 44 -15
55 -26z m276 3 c29 -28 30 -30 35 -153 6 -115 5 -128 -15 -158 -14 -22 -26
-32 -36 -28 -9 3 -12 1 -9 -4 9 -14 -67 -12 -85 3 -29 23 -38 65 -39 184 -1
107 1 123 19 144 16 19 19 20 13 5 -4 -13 -3 -17 5 -12 7 4 12 13 12 21 0 33
62 32 100 -2z m179 -26 c-1 -29 1 -59 6 -67 11 -18 44 45 45 88 0 26 4 32 21
32 20 0 21 -4 16 -54 -3 -30 -12 -67 -20 -82 -11 -22 -12 -34 -3 -53 8 -19 8
-25 -2 -29 -16 -5 -15 -22 2 -22 11 0 76 -116 76 -136 0 -3 -12 -4 -26 -2 -27
3 -28 6 -71 125 -10 28 -19 40 -29 36 -8 -3 -14 -11 -14 -19 0 -8 -5 -14 -10
-14 -6 0 -5 -8 2 -19 10 -16 8 -26 -7 -55 -11 -19 -16 -38 -12 -42 4 -4 7 0 7
9 0 10 4 17 10 17 5 0 8 -10 6 -22 -1 -13 -9 -23 -17 -23 -11 0 -14 35 -17
193 -2 189 -2 192 19 192 18 0 20 -5 18 -53z m529 -5 c3 -44 0 -52 -15 -53
-17 -1 -17 -2 0 -6 9 -2 17 -13 17 -23 0 -27 70 -44 85 -20 4 6 12 7 18 3 8
-4 7 -1 -1 9 -8 11 -12 38 -10 80 3 55 5 63 23 63 19 0 20 -7 22 -117 1 -83
-2 -118 -10 -118 -8 0 -8 -3 1 -12 7 -7 12 -39 12 -76 0 -60 -1 -63 -22 -60
-21 3 -23 9 -28 83 l-5 80 -34 3 c-18 2 -38 -1 -44 -7 -5 -5 -9 -44 -8 -86 1
-74 1 -76 -21 -73 -23 3 -23 4 -26 183 -1 99 0 186 3 193 3 8 13 12 22 10 14
-2 19 -15 21 -56z m382 43 c39 -20 51 -70 49 -193 -2 -115 -12 -148 -50 -167
-35 -19 -53 -19 -88 -1 -42 22 -50 52 -50 191 l-1 127 29 29 c33 33 67 37 111
14z m190 -134 c0 -131 2 -152 19 -172 16 -20 22 -22 45 -11 l25 11 3 158 c3
155 3 158 26 161 l22 3 0 -163 c0 -179 -4 -195 -59 -218 -38 -15 -93 1 -109
33 -12 22 -24 309 -14 335 2 6 13 12 23 12 18 0 19 -9 19 -149z m383 129 c41
-32 45 -89 5 -90 -10 0 -37 58 -29 63 3 2 0 2 -7 0 -8 -1 -22 -3 -32 -3 -11 0
-24 -9 -30 -21 -16 -29 2 -67 51 -104 46 -36 79 -83 79 -116 0 -38 -35 -86
-68 -94 -48 -10 -98 16 -112 59 -6 20 -9 40 -5 46 9 15 45 12 45 -4 0 -8 8
-24 18 -36 23 -29 59 -20 68 17 6 21 -4 35 -62 94 -65 66 -69 72 -69 115 0 38
5 50 28 70 35 30 85 31 120 4z m285 -2 c-3 -20 -9 -23 -53 -23 -45 0 -50 -3
-59 -27 -14 -40 4 -93 32 -94 12 -1 27 -2 32 -3 12 -1 14 -40 3 -42 -5 -1 -18
-3 -31 -4 -12 -1 -25 -4 -27 -7 -8 -8 -9 -94 -1 -106 4 -7 30 -12 57 -12 47 0
50 -2 47 -22 -3 -22 -8 -23 -78 -23 l-75 0 -5 170 c-3 94 -4 180 -1 193 3 21
8 22 83 22 77 0 79 -1 76 -22z"/>
<path d="M1586 2438 c-9 -12 -16 -33 -16 -45 0 -19 5 -23 33 -23 17 -1 228 -1
467 -1 239 0 429 -3 423 -6 -7 -2 -13 -9 -13 -15 0 -6 9 -3 19 6 17 16 43 17
248 15 l228 -3 3 23 c2 12 -4 33 -12 47 l-16 24 -675 0 -674 0 -15 -22z m1294
-28 c0 -5 -4 -10 -10 -10 -5 0 -10 5 -10 10 0 6 5 10 10 10 6 0 10 -4 10 -10z
m50 0 c0 -5 -4 -10 -10 -10 -5 0 -10 5 -10 10 0 6 5 10 10 10 6 0 10 -4 10
-10z"/>
<path d="M1553 2313 c11 -3 17 -14 17 -34 0 -27 29 -69 48 -69 17 0 41 26 42
45 6 63 5 65 -62 64 -35 -1 -55 -3 -45 -6z"/>
<path d="M1710 2276 c0 -54 19 -74 55 -58 21 10 25 18 25 57 l0 45 -40 0 -40
0 0 -44z"/>
<path d="M1840 2275 c0 -34 5 -47 19 -55 38 -20 71 12 71 69 0 30 -1 31 -45
31 l-45 0 0 -45z"/>
<path d="M1970 2275 c0 -56 26 -76 66 -50 19 12 24 24 24 55 l0 40 -45 0 -45
0 0 -45z"/>
<path d="M2100 2277 c0 -30 6 -48 20 -59 12 -11 22 -13 26 -7 3 6 14 9 23 6
13 -3 17 6 19 50 l3 53 -45 0 -46 0 0 -43z"/>
<path d="M2230 2281 c0 -40 20 -71 44 -71 23 0 46 36 46 73 l0 37 -45 0 -45 0
0 -39z"/>
<path d="M2360 2283 c0 -21 7 -46 14 -55 30 -40 76 -8 76 53 l0 39 -45 0 -45
0 0 -37z"/>
<path d="M2490 2280 c0 -31 5 -43 24 -55 40 -26 66 -6 66 50 l0 45 -45 0 -45
0 0 -40z"/>
<path d="M2620 2280 c0 -31 5 -43 24 -55 40 -26 66 -6 66 50 l0 45 -45 0 -45
0 0 -40z"/>
<path d="M2750 2296 c0 -61 33 -96 71 -76 14 8 19 21 19 55 l0 45 -45 0 c-41
0 -45 -2 -45 -24z"/>
<path d="M2888 2271 c-1 -27 -1 -48 1 -46 1 2 14 0 27 -5 34 -13 64 18 64 65
0 35 0 35 -44 35 l-44 0 -4 -49z"/>
<path d="M2191 2193 c-10 -11 -25 -13 -55 -9 -51 8 -61 8 -114 0 -26 -4 -48
-2 -57 6 -10 8 -19 8 -34 1 -26 -14 -84 -14 -98 0 -8 8 -17 8 -31 0 -26 -14
-89 -14 -97 -1 -12 20 -25 10 -25 -19 0 -20 6 -31 18 -35 110 -31 924 -44
1090 -18 46 7 86 11 90 8 3 -3 -9 -9 -26 -12 -32 -6 -32 -7 -32 -68 0 -54 3
-62 23 -71 28 -13 35 -65 12 -89 -19 -19 -66 -21 -83 -4 -22 22 -15 76 13 94
22 14 25 23 25 74 l0 58 -47 -6 c-27 -2 -49 -5 -50 -6 -1 -1 -4 -20 -6 -44 -4
-29 -1 -47 9 -57 10 -10 14 -28 11 -52 l-4 -38 -1 37 c-2 30 -6 36 -22 35 -20
-1 -24 -8 -21 -39 1 -10 -3 -18 -8 -18 -6 0 -11 16 -11 35 0 24 5 35 15 35 11
0 15 12 15 50 l0 50 -40 0 -40 0 0 -60 c0 -33 4 -60 9 -60 5 0 11 -23 13 -50
l3 -50 -32 0 c-32 0 -33 1 -33 44 0 25 5 48 10 51 6 3 10 32 10 64 l0 57 -142
-3 c-146 -4 -417 8 -636 28 -68 6 -126 8 -130 5 -3 -4 -5 -36 -4 -72 2 -39 -2
-72 -9 -80 -8 -10 -9 -14 0 -14 13 0 12 -168 -1 -176 -5 -3 -3 -14 2 -25 11
-20 10 -56 -3 -76 -5 -8 -4 -13 2 -13 7 0 11 -24 11 -60 l0 -60 45 0 c42 0 45
2 35 19 -5 11 -10 51 -10 90 l0 71 83 -2 82 -2 -77 -3 -78 -4 0 -60 c0 -91 7
-99 89 -99 78 0 87 7 100 71 l9 44 1 -40 c1 -22 -6 -51 -15 -63 l-15 -22 70 0
70 0 3 143 3 142 235 0 235 0 5 -140 5 -140 53 -3 c43 -3 53 0 58 15 3 10 10
28 16 39 7 15 6 44 -1 92 -16 104 -15 112 14 112 14 0 25 5 25 10 0 6 9 10 19
10 11 0 23 -4 26 -10 3 -5 15 -10 26 -10 14 0 19 -7 19 -30 0 -24 4 -30 21
-30 19 0 21 -4 15 -37 -3 -21 -6 -44 -6 -50 0 -7 -9 -13 -20 -13 -27 0 -38
-30 -17 -42 10 -5 17 -20 17 -33 0 -22 4 -25 40 -25 l40 0 2 238 c0 130 1 244
0 252 -1 8 -2 46 -3 83 -2 56 -5 70 -22 78 -13 8 -22 8 -30 0 -6 -6 -26 -11
-45 -11 -18 0 -43 5 -54 11 -14 8 -23 8 -31 0 -14 -14 -72 -14 -98 0 -15 7
-24 7 -34 -1 -9 -8 -31 -10 -57 -6 -24 3 -51 6 -60 5 -25 0 -104 0 -125 1 -10
0 -35 -2 -56 -6 -25 -4 -44 -1 -60 9 -19 13 -24 13 -36 0z m-356 -341 c-5 -34
-3 -48 11 -63 9 -10 12 -19 7 -19 -24 0 -36 31 -30 75 4 25 2 47 -3 50 -6 3
-10 11 -10 17 0 6 6 5 16 -3 12 -10 14 -23 9 -57z m50 28 c3 -5 1 -10 -4 -10
-6 0 -11 5 -11 10 0 6 2 10 4 10 3 0 8 -4 11 -10z m31 -32 c-11 -15 -16 -18
-16 -7 0 16 21 42 28 34 2 -2 -3 -14 -12 -27z m-115 -53 l-9 -30 -1 27 c-1 14
-4 35 -7 45 -6 16 -5 16 9 3 13 -12 14 -22 8 -45z m73 39 c9 -3 16 -14 16 -23
0 -9 6 -23 13 -30 10 -11 9 -13 -3 -9 -8 3 -17 13 -19 24 -2 10 -11 24 -20 31
-17 13 -12 17 13 7z m85 -141 c0 -16 -3 -21 -6 -13 -3 8 -12 21 -21 28 -14 10
-13 12 6 12 18 0 22 -6 21 -27z m-49 -56 c0 -18 -5 -38 -12 -45 -15 -15 -48
-16 -48 -2 0 6 9 10 20 10 16 0 20 7 20 35 0 19 5 35 10 35 6 0 10 -15 10 -33z"/>
<path d="M2782 1954 c-10 -11 -10 -14 0 -14 9 0 9 -3 -2 -10 -13 -9 -13 -10 0
-10 13 0 13 -1 0 -10 -14 -9 -7 -12 16 -9 4 0 11 -5 15 -13 7 -10 9 -10 9 0 0
6 3 11 8 10 4 -2 8 1 9 6 1 5 7 13 15 17 10 7 10 9 1 9 -7 0 -12 3 -12 8 3 20
-2 32 -16 32 -8 0 -15 -6 -15 -12 0 -10 -2 -10 -8 -2 -5 9 -11 8 -20 -2z"/>
<path d="M2586 1945 c-13 -36 -7 -65 15 -65 17 0 20 5 17 37 -3 39 -21 55 -32
28z"/>
<path d="M2086 1804 c-3 -8 -6 -27 -6 -40 l0 -24 231 0 230 0 -3 38 -3 37
-221 3 c-196 2 -222 0 -228 -14z m124 -24 c0 -5 -4 -10 -10 -10 -5 0 -10 5
-10 10 0 6 5 10 10 10 6 0 10 -4 10 -10z m80 0 c0 -5 -4 -10 -10 -10 -5 0 -10
5 -10 10 0 6 5 10 10 10 6 0 10 -4 10 -10z m80 0 c0 -5 -4 -10 -9 -10 -6 0
-13 5 -16 10 -3 6 1 10 9 10 9 0 16 -4 16 -10z m60 0 c0 -5 -4 -10 -10 -10 -5
0 -10 5 -10 10 0 6 5 10 10 10 6 0 10 -4 10 -10z"/>
<path d="M2680 1782 c0 -5 3 -11 6 -14 3 -3 7 -38 9 -78 3 -39 7 -75 10 -81 7
-11 62 -12 68 -1 3 4 8 37 12 74 l7 67 -38 4 -39 4 43 1 c30 2 42 6 42 17 0
12 -13 15 -60 15 -33 0 -60 -4 -60 -8z"/>
<path d="M2090 1635 c0 -95 0 -95 25 -95 14 0 25 6 26 13 1 6 2 37 3 67 l1 55
165 0 165 0 3 -68 c3 -68 3 -68 30 -65 l27 3 0 90 0 90 -222 3 -223 2 0 -95z"/>
<path d="M2806 1708 c-10 -38 -7 -58 9 -58 11 0 15 11 15 40 0 43 -14 54 -24
18z"/>
<path d="M2193 1663 l-33 -4 0 -60 c0 -58 0 -59 29 -59 16 0 33 6 38 13 12 14
45 98 41 102 -8 7 -47 11 -75 8z"/>
<path d="M2355 1655 c-10 -8 -45 -96 -45 -112 0 -2 34 -3 75 -3 l75 0 0 59 0
59 -46 4 c-26 2 -52 -1 -59 -7z"/>
<path d="M2291 1605 c-24 -64 -24 -65 -11 -65 10 0 50 84 50 106 0 32 -20 10
-39 -41z"/>
<path d="M2683 1574 c-9 -23 6 -32 62 -36 48 -3 50 -2 53 25 3 27 3 27 -53 27
-41 0 -57 -4 -62 -16z m67 -14 c0 -5 -4 -10 -10 -10 -5 0 -10 5 -10 10 0 6 5
10 10 10 6 0 10 -4 10 -10z"/>
<path d="M1665 1502 c-29 -3 -30 -4 -27 -47 l4 -45 237 0 c182 1 245 4 276 16
22 8 74 17 116 20 62 5 90 3 147 -15 63 -19 94 -21 296 -21 l226 0 0 34 c0 18
-6 39 -13 45 -10 7 -198 11 -623 13 -335 2 -623 2 -639 0z"/>
<path d="M944 1422 l-21 -36 47 -43 c28 -25 59 -67 76 -103 19 -39 35 -60 47
-60 9 0 17 3 17 6 0 14 -120 251 -132 262 -10 8 -18 2 -34 -26z"/>
<path d="M1040 1435 c0 -8 10 -35 22 -60 21 -44 23 -45 67 -45 51 0 74 10 63
26 -4 6 -31 29 -60 52 -55 43 -92 54 -92 27z"/>
<path d="M730 1421 c0 -5 -21 -12 -47 -15 -58 -8 -160 -56 -192 -90 -19 -21
-22 -28 -12 -40 11 -13 19 -10 56 19 24 18 61 39 82 46 48 17 171 17 201 0 20
-11 26 -10 37 6 12 15 12 20 -3 31 -9 7 -34 15 -55 19 -21 3 -41 12 -44 19 -6
16 -23 19 -23 5z"/>
<path d="M2847 1393 c-4 -3 -7 -17 -7 -30 0 -12 -4 -23 -10 -23 -5 0 -10 11
-10 25 0 24 -2 25 -75 25 -75 0 -80 -3 -76 -39 2 -7 -4 -11 -11 -9 -7 3 -14
14 -16 26 -3 20 -9 22 -64 22 l-61 0 51 -50 c43 -43 85 -111 106 -172 5 -15
18 -18 94 -18 98 0 147 12 162 40 12 22 13 150 2 166 -6 10 -65 44 -75 44 -2
0 -7 -3 -10 -7z"/>
<path d="M1672 1365 c-35 -29 -48 -81 -37 -145 10 -58 32 -68 145 -71 72 -2
98 -6 108 -18 12 -14 13 -14 8 1 -2 9 1 18 8 21 7 3 18 24 25 46 6 23 16 39
21 36 6 -3 7 1 4 9 -4 10 17 38 58 81 l64 65 -68 0 c-66 0 -68 -1 -68 -25 0
-14 -4 -25 -10 -25 -5 0 -10 11 -10 25 0 24 -3 25 -59 25 -54 0 -60 -2 -63
-22 -5 -32 -28 -35 -28 -4 0 23 -4 26 -34 26 -22 0 -45 -9 -64 -25z"/>
<path d="M1610 1370 c0 -5 5 -10 10 -10 6 0 10 5 10 10 0 6 -4 10 -10 10 -5 0
-10 -4 -10 -10z"/>
<path d="M890 1340 c-8 -5 -18 -6 -22 -4 -24 15 7 -24 33 -41 33 -22 89 -97
89 -121 0 -16 9 -18 29 -5 12 8 12 14 1 40 -28 68 -106 146 -130 131z"/>
<path d="M731 1331 c-1 -8 -8 -11 -19 -9 -17 5 -17 -1 -10 -71 5 -42 11 -87
14 -101 5 -24 6 -24 17 -5 16 28 48 156 41 166 -3 5 -11 9 -19 9 -7 0 -16 6
-18 13 -4 9 -6 8 -6 -2z"/>
<path d="M2262 1319 c-16 -6 -22 -14 -18 -26 3 -10 12 -47 21 -83 21 -81 32
-94 40 -44 13 82 24 100 18 30 -4 -46 -3 -67 4 -63 21 13 95 149 86 158 -5 5
-23 12 -41 15 -25 5 -32 3 -32 -9 0 -9 -5 -19 -11 -23 -7 -4 -9 2 -7 16 4 27
-26 41 -60 29z"/>
<path d="M648 1309 c-50 -13 -50 -17 -6 -100 23 -43 46 -79 51 -79 10 0 0 140
-12 170 -4 13 -13 15 -33 9z"/>
<path d="M1511 1308 c-1 -15 -10 -18 -51 -18 -58 0 -64 -13 -22 -52 33 -32
128 -88 147 -88 12 0 15 15 15 70 l0 70 -39 0 c-29 0 -41 5 -44 18 -4 16 -5
16 -6 0z"/>
<path d="M2182 1292 c-18 -9 -31 -21 -28 -28 9 -23 99 -134 109 -134 5 0 6 10
3 23 -4 12 -14 52 -23 90 -9 37 -19 67 -22 66 -3 0 -21 -8 -39 -17z"/>
<path d="M782 1261 c-18 -57 -14 -61 13 -16 28 46 30 55 12 55 -8 0 -19 -17
-25 -39z"/>
<path d="M1127 1292 c-21 -4 -21 -3 0 -46 16 -34 17 -35 31 -15 11 16 23 19
55 17 52 -4 59 -31 10 -36 -41 -4 -42 -22 -3 -51 17 -12 38 -38 47 -57 l17
-34 180 -1 c100 -1 189 -1 199 0 9 1 17 -3 17 -8 0 -6 7 -11 15 -11 8 0 15 5
15 10 0 14 74 12 88 -2 9 -9 12 -9 12 0 0 7 14 12 35 12 26 0 35 -4 36 -17 0
-14 2 -15 6 -3 3 8 12 23 21 33 20 22 14 27 -36 29 -28 1 -43 6 -45 17 -4 14
-5 13 -6 -1 -1 -15 -15 -17 -124 -17 -108 0 -128 2 -172 23 -28 13 -60 32 -73
42 -13 11 -42 34 -64 52 -23 18 -53 39 -68 47 -24 12 -156 24 -193 17z"/>
<path d="M551 1256 l-23 -24 31 -23 c17 -12 28 -26 25 -31 -3 -5 -2 -8 3 -7
20 3 25 -2 14 -15 -10 -12 -8 -13 9 -9 12 3 29 -2 40 -12 11 -10 20 -15 20
-11 0 13 -82 156 -89 156 -4 0 -18 -11 -30 -24z"/>
<path d="M2422 1263 c-4 -10 -22 -44 -40 -76 -19 -31 -32 -61 -30 -67 2 -5 36
16 76 46 72 55 73 56 55 76 -31 34 -52 41 -61 21z"/>
<path d="M831 1227 l-23 -42 30 35 c31 35 38 50 25 50 -5 0 -19 -19 -32 -43z"/>
<path d="M2105 1230 c-16 -16 -26 -33 -22 -36 3 -3 36 -23 72 -45 104 -60 110
-52 34 42 -28 35 -52 65 -53 66 -1 2 -15 -11 -31 -27z"/>
<path d="M843 1203 c-73 -90 -70 -85 -37 -77 35 8 120 50 128 63 6 10 -31 61
-44 61 -4 0 -26 -21 -47 -47z"/>
<path d="M2440 1158 c-88 -67 -90 -80 -10 -59 19 6 54 15 77 21 41 10 42 11
32 40 -18 51 -29 51 -99 -2z"/>
<path d="M492 1187 c-5 -6 -12 -21 -16 -32 -5 -18 3 -23 75 -43 45 -12 83 -21
85 -19 3 3 -95 83 -122 99 -6 4 -16 2 -22 -5z"/>
<path d="M925 1164 c-18 -14 -18 -14 2 -14 23 0 39 15 26 23 -5 3 -17 -1 -28
-9z"/>
<path d="M2050 1144 c-7 -19 -10 -37 -8 -39 7 -8 148 -26 170 -23 18 3 7 13
-57 51 -44 26 -83 47 -87 47 -3 0 -12 -16 -18 -36z"/>
<path d="M2955 1170 c3 -5 8 -10 11 -10 2 0 4 5 4 10 0 6 -5 10 -11 10 -5 0
-7 -4 -4 -10z"/>
<path d="M1121 1143 c-39 -4 -42 -6 -37 -26 3 -12 6 -28 6 -34 0 -8 13 -13 30
-13 29 0 35 8 30 39 -1 8 6 21 16 28 10 7 14 12 8 11 -5 -1 -29 -3 -53 -5z"/>
<path d="M1013 1103 c5 -40 40 -46 35 -6 -2 17 -10 29 -21 31 -14 3 -17 -2
-14 -25z"/>
<path d="M1190 1100 c0 -25 4 -30 25 -30 29 0 31 7 9 38 -21 30 -34 28 -34 -8z"/>
<path d="M460 1079 l0 -41 83 7 c100 9 99 1 -1 -13 -41 -6 -76 -13 -79 -16 -6
-6 3 -45 16 -65 7 -11 13 -11 32 -1 24 13 24 13 6 -8 -15 -16 -16 -25 -8 -41
14 -26 14 -34 -1 -26 -7 4 -4 -1 7 -9 10 -9 22 -15 26 -14 10 4 119 141 119
151 0 12 -15 8 -65 -18 -26 -14 -49 -24 -51 -22 -2 2 18 16 45 31 43 23 49 30
47 54 -3 24 -10 29 -77 49 -101 29 -99 30 -99 -18z"/>
<path d="M878 1101 c-42 -9 -80 -20 -85 -25 -4 -5 1 -6 12 -3 11 3 52 9 92 12
40 4 77 12 82 19 14 17 -10 16 -101 -3z"/>
<path d="M2510 1110 c-14 -5 -51 -16 -83 -25 -33 -10 -55 -21 -50 -25 6 -6
143 -30 172 -30 13 0 19 44 10 68 -9 24 -12 25 -49 12z"/>
<path d="M693 1088 c-30 -39 -15 -73 29 -66 15 2 24 11 26 26 6 40 -33 68 -55
40z"/>
<path d="M2278 1089 c-33 -19 -15 -69 24 -69 15 0 38 27 38 44 0 7 -31 36 -38
36 -4 0 -15 -5 -24 -11z"/>
<path d="M920 1074 c-8 -1 -41 -6 -72 -9 -32 -4 -58 -10 -58 -15 0 -4 22 -13
50 -20 27 -7 48 -15 45 -19 -2 -4 6 -7 18 -6 12 1 32 -1 44 -6 24 -9 33 5 33
52 0 29 -12 34 -60 23z"/>
<path d="M1134 1045 c-4 -8 -13 -15 -21 -15 -8 0 -23 -10 -34 -22 l-19 -23 -6
23 c-8 28 -31 29 -39 1 -9 -29 -4 -32 71 -36 l67 -5 -6 41 c-3 25 -1 42 7 45
7 3 7 5 -2 5 -7 1 -15 -6 -18 -14z"/>
<path d="M1228 1053 c7 -3 16 -2 19 1 4 3 -2 6 -13 5 -11 0 -14 -3 -6 -6z"/>
<path d="M2371 1031 c2 -6 38 -30 78 -54 82 -48 96 -47 99 9 2 31 2 32 -55 38
-32 4 -73 10 -92 13 -23 4 -32 2 -30 -6z"/>
<path d="M810 1016 c14 -8 27 -12 29 -10 6 6 -1 11 -29 18 l-25 7 25 -15z"/>
<path d="M1192 1003 c2 -14 10 -28 18 -30 12 -4 12 -2 2 5 -10 7 -10 11 3 22
21 17 19 30 -6 30 -16 0 -20 -5 -17 -27z"/>
<path d="M2295 1011 c-27 -6 -28 -8 -9 -14 23 -8 54 0 54 14 0 10 -1 10 -45 0z"/>
<path d="M715 1000 c3 -5 8 -10 11 -10 2 0 4 5 4 10 0 6 -5 10 -11 10 -5 0 -7
-4 -4 -10z"/>
<path d="M2350 1004 c0 -3 23 -36 52 -73 29 -36 53 -68 55 -70 6 -8 62 52 57
60 -5 9 -148 89 -158 89 -3 0 -6 -3 -6 -6z"/>
<path d="M2166 950 c-36 -28 -66 -55 -66 -60 0 -15 51 -49 66 -43 8 3 14 -1
14 -9 0 -18 70 -51 75 -35 13 43 24 172 16 180 -7 7 -13 4 -18 -9 -10 -26 -63
-110 -63 -99 0 4 14 32 30 62 46 82 40 83 -54 13z"/>
<path d="M613 916 c-61 -74 -66 -86 -32 -86 13 0 17 -5 13 -17 -5 -14 -4 -15
4 -4 5 7 15 10 22 6 6 -4 17 1 25 11 14 18 14 18 15 -3 0 -18 6 -23 26 -23 14
0 23 -4 19 -9 -3 -5 0 -13 6 -17 7 -4 9 -3 6 3 -4 6 0 14 9 17 13 5 15 16 10
59 -17 139 -22 150 -44 100 l-12 -28 5 33 c2 17 1 32 -3 32 -4 0 -35 -33 -69
-74z m58 -47 c-10 -23 -10 -23 -7 6 7 47 8 51 13 34 2 -8 -1 -26 -6 -40z"/>
<path d="M2314 983 c-17 -3 -23 -16 -33 -83 -8 -44 -11 -86 -8 -93 7 -19 77
-10 77 10 0 12 3 13 14 3 12 -9 22 -8 50 5 21 10 33 22 29 29 -9 15 -104 136
-106 135 -1 -1 -11 -4 -23 -6z m19 -33 c3 -11 1 -20 -4 -20 -5 0 -9 9 -9 20 0
11 2 20 4 20 2 0 6 -9 9 -20z m27 -99 c0 -27 -18 3 -24 39 l-6 35 15 -30 c8
-16 14 -37 15 -44z"/>
<path d="M743 893 c5 -49 11 -89 12 -91 2 -2 21 2 43 9 45 13 46 13 -13 116
-44 77 -52 69 -42 -34z"/>
<path d="M807 910 c21 -38 43 -70 49 -70 18 0 59 49 48 59 -44 42 -99 81 -116
81 -17 0 -16 -7 19 -70z"/>
<path d="M861 954 c7 -8 25 -24 40 -35 l28 -20 11 22 c15 27 5 35 -48 42 -37
4 -41 3 -31 -9z"/>
<path d="M456 218 c7 -11 34 -10 34 1 0 6 -9 9 -19 8 -11 0 -17 -5 -15 -9z"/>
<path d="M690 510 c-6 -12 -10 -72 -9 -143 l1 -122 33 -2 c18 -2 38 3 44 11
17 20 18 240 2 260 -19 22 -58 20 -71 -4z"/>
<path d="M980 515 c-15 -19 -14 -243 1 -262 18 -20 57 -16 70 9 14 26 12 223
-2 250 -12 22 -52 24 -69 3z"/>
<path d="M2080 515 c-12 -11 -14 -39 -12 -135 3 -117 4 -121 28 -132 36 -17
64 12 64 67 0 22 6 47 13 54 10 11 10 14 0 18 -8 3 -13 22 -13 48 0 63 -15 95
-43 95 -12 0 -29 -7 -37 -15z"/>
</g>
</svg>
